<svg width="185" height="70" viewBox="0 0 185 70" fill="none" xmlns="http://www.w3.org/2000/svg">
<rect x="1.5" y="1.5" width="182" height="67" rx="8.5" fill="black"/>
<path d="M70.473 19.0075C71.324 19.0075 72.0677 19.1723 72.704 19.502C73.348 19.824 73.8425 20.2917 74.1875 20.905C74.5402 21.5107 74.7165 22.2198 74.7165 23.0325C74.7165 23.8452 74.5402 24.5505 74.1875 25.1485C73.8425 25.7465 73.348 26.2065 72.704 26.5285C72.0677 26.8428 71.324 27 70.473 27H67.8625V19.0075H70.473ZM70.473 25.9305C71.4083 25.9305 72.1252 25.6775 72.6235 25.1715C73.1218 24.6655 73.371 23.9525 73.371 23.0325C73.371 22.1048 73.1218 21.3803 72.6235 20.859C72.1252 20.3377 71.4083 20.077 70.473 20.077H69.1735V25.9305H70.473ZM78.8234 27.1035C78.2254 27.1035 77.6849 26.9693 77.2019 26.701C76.7189 26.425 76.3394 26.0417 76.0634 25.551C75.7874 25.0527 75.6494 24.4777 75.6494 23.826C75.6494 23.182 75.7912 22.6108 76.0749 22.1125C76.3586 21.6142 76.7457 21.2308 77.2364 20.9625C77.7271 20.6942 78.2752 20.56 78.8809 20.56C79.4866 20.56 80.0347 20.6942 80.5254 20.9625C81.0161 21.2308 81.4032 21.6142 81.6869 22.1125C81.9706 22.6108 82.1124 23.182 82.1124 23.826C82.1124 24.47 81.9667 25.0412 81.6754 25.5395C81.3841 26.0378 80.9854 26.425 80.4794 26.701C79.9811 26.9693 79.4291 27.1035 78.8234 27.1035ZM78.8234 25.965C79.1607 25.965 79.4751 25.8845 79.7664 25.7235C80.0654 25.5625 80.3069 25.321 80.4909 24.999C80.6749 24.677 80.7669 24.286 80.7669 23.826C80.7669 23.366 80.6787 22.9788 80.5024 22.6645C80.3261 22.3425 80.0922 22.101 79.8009 21.94C79.5096 21.779 79.1952 21.6985 78.8579 21.6985C78.5206 21.6985 78.2062 21.779 77.9149 21.94C77.6312 22.101 77.4051 22.3425 77.2364 22.6645C77.0677 22.9788 76.9834 23.366 76.9834 23.826C76.9834 24.5083 77.1559 25.0373 77.5009 25.413C77.8536 25.781 78.2944 25.965 78.8234 25.965ZM91.9774 20.6635L90.0109 27H88.6309L87.3544 22.3195L86.0779 27H84.6979L82.7199 20.6635H84.0539L85.3764 25.758L86.7219 20.6635H88.0904L89.3784 25.735L90.6894 20.6635H91.9774ZM96.2133 20.56C96.7116 20.56 97.1563 20.6635 97.5473 20.8705C97.9459 21.0775 98.2564 21.3842 98.4788 21.7905C98.7011 22.1968 98.8123 22.6875 98.8123 23.2625V27H97.5128V23.458C97.5128 22.8907 97.3709 22.4575 97.0873 22.1585C96.8036 21.8518 96.4164 21.6985 95.9258 21.6985C95.4351 21.6985 95.0441 21.8518 94.7528 22.1585C94.4691 22.4575 94.3273 22.8907 94.3273 23.458V27H93.0163V20.6635H94.3273V21.388C94.5419 21.1273 94.8141 20.9242 95.1438 20.7785C95.4811 20.6328 95.8376 20.56 96.2133 20.56ZM101.855 18.49V27H100.544V18.49H101.855ZM106.383 27.1035C105.785 27.1035 105.245 26.9693 104.762 26.701C104.279 26.425 103.899 26.0417 103.623 25.551C103.347 25.0527 103.209 24.4777 103.209 23.826C103.209 23.182 103.351 22.6108 103.635 22.1125C103.919 21.6142 104.306 21.2308 104.796 20.9625C105.287 20.6942 105.835 20.56 106.441 20.56C107.047 20.56 107.595 20.6942 108.085 20.9625C108.576 21.2308 108.963 21.6142 109.247 22.1125C109.531 22.6108 109.672 23.182 109.672 23.826C109.672 24.47 109.527 25.0412 109.235 25.5395C108.944 26.0378 108.545 26.425 108.039 26.701C107.541 26.9693 106.989 27.1035 106.383 27.1035ZM106.383 25.965C106.721 25.965 107.035 25.8845 107.326 25.7235C107.625 25.5625 107.867 25.321 108.051 24.999C108.235 24.677 108.327 24.286 108.327 23.826C108.327 23.366 108.239 22.9788 108.062 22.6645C107.886 22.3425 107.652 22.101 107.361 21.94C107.07 21.779 106.755 21.6985 106.418 21.6985C106.081 21.6985 105.766 21.779 105.475 21.94C105.191 22.101 104.965 22.3425 104.796 22.6645C104.628 22.9788 104.543 23.366 104.543 23.826C104.543 24.5083 104.716 25.0373 105.061 25.413C105.414 25.781 105.854 25.965 106.383 25.965ZM110.59 23.803C110.59 23.1667 110.721 22.6032 110.981 22.1125C111.25 21.6218 111.61 21.2423 112.062 20.974C112.522 20.698 113.028 20.56 113.58 20.56C114.079 20.56 114.512 20.6597 114.88 20.859C115.256 21.0507 115.555 21.2922 115.777 21.5835V20.6635H117.099V27H115.777V26.057C115.555 26.356 115.252 26.6052 114.868 26.8045C114.485 27.0038 114.048 27.1035 113.557 27.1035C113.013 27.1035 112.515 26.9655 112.062 26.6895C111.61 26.4058 111.25 26.0148 110.981 25.5165C110.721 25.0105 110.59 24.4393 110.59 23.803ZM115.777 23.826C115.777 23.389 115.685 23.0095 115.501 22.6875C115.325 22.3655 115.091 22.1202 114.799 21.9515C114.508 21.7828 114.194 21.6985 113.856 21.6985C113.519 21.6985 113.205 21.7828 112.913 21.9515C112.622 22.1125 112.384 22.354 112.2 22.676C112.024 22.9903 111.936 23.366 111.936 23.803C111.936 24.24 112.024 24.6233 112.2 24.953C112.384 25.2827 112.622 25.5357 112.913 25.712C113.212 25.8807 113.527 25.965 113.856 25.965C114.194 25.965 114.508 25.8807 114.799 25.712C115.091 25.5433 115.325 25.298 115.501 24.976C115.685 24.6463 115.777 24.263 115.777 23.826ZM118.443 23.803C118.443 23.1667 118.574 22.6032 118.834 22.1125C119.103 21.6218 119.463 21.2423 119.915 20.974C120.375 20.698 120.885 20.56 121.445 20.56C121.859 20.56 122.265 20.652 122.664 20.836C123.07 21.0123 123.392 21.25 123.63 21.549V18.49H124.952V27H123.63V26.0455C123.415 26.3522 123.116 26.6052 122.733 26.8045C122.357 27.0038 121.924 27.1035 121.433 27.1035C120.881 27.1035 120.375 26.9655 119.915 26.6895C119.463 26.4058 119.103 26.0148 118.834 25.5165C118.574 25.0105 118.443 24.4393 118.443 23.803ZM123.63 23.826C123.63 23.389 123.538 23.0095 123.354 22.6875C123.178 22.3655 122.944 22.1202 122.652 21.9515C122.361 21.7828 122.047 21.6985 121.709 21.6985C121.372 21.6985 121.058 21.7828 120.766 21.9515C120.475 22.1125 120.237 22.354 120.053 22.676C119.877 22.9903 119.789 23.366 119.789 23.803C119.789 24.24 119.877 24.6233 120.053 24.953C120.237 25.2827 120.475 25.5357 120.766 25.712C121.065 25.8807 121.38 25.965 121.709 25.965C122.047 25.965 122.361 25.8807 122.652 25.712C122.944 25.5433 123.178 25.298 123.354 24.976C123.538 24.6463 123.63 24.263 123.63 23.826ZM132.528 27.1035C131.93 27.1035 131.39 26.9693 130.907 26.701C130.424 26.425 130.044 26.0417 129.768 25.551C129.492 25.0527 129.354 24.4777 129.354 23.826C129.354 23.182 129.496 22.6108 129.78 22.1125C130.063 21.6142 130.451 21.2308 130.941 20.9625C131.432 20.6942 131.98 20.56 132.586 20.56C133.191 20.56 133.74 20.6942 134.23 20.9625C134.721 21.2308 135.108 21.6142 135.392 22.1125C135.675 22.6108 135.817 23.182 135.817 23.826C135.817 24.47 135.672 25.0412 135.38 25.5395C135.089 26.0378 134.69 26.425 134.184 26.701C133.686 26.9693 133.134 27.1035 132.528 27.1035ZM132.528 25.965C132.866 25.965 133.18 25.8845 133.471 25.7235C133.77 25.5625 134.012 25.321 134.196 24.999C134.38 24.677 134.472 24.286 134.472 23.826C134.472 23.366 134.384 22.9788 134.207 22.6645C134.031 22.3425 133.797 22.101 133.506 21.94C133.214 21.779 132.9 21.6985 132.563 21.6985C132.225 21.6985 131.911 21.779 131.62 21.94C131.336 22.101 131.11 22.3425 130.941 22.6645C130.773 22.9788 130.688 23.366 130.688 23.826C130.688 24.5083 130.861 25.0373 131.206 25.413C131.558 25.781 131.999 25.965 132.528 25.965ZM140.369 20.56C140.868 20.56 141.312 20.6635 141.703 20.8705C142.102 21.0775 142.413 21.3842 142.635 21.7905C142.857 22.1968 142.968 22.6875 142.968 23.2625V27H141.669V23.458C141.669 22.8907 141.527 22.4575 141.243 22.1585C140.96 21.8518 140.573 21.6985 140.082 21.6985C139.591 21.6985 139.2 21.8518 138.909 22.1585C138.625 22.4575 138.483 22.8907 138.483 23.458V27H137.172V20.6635H138.483V21.388C138.698 21.1273 138.97 20.9242 139.3 20.7785C139.637 20.6328 139.994 20.56 140.369 20.56ZM149.276 21.733V25.2405C149.276 25.4782 149.329 25.6507 149.437 25.758C149.552 25.8577 149.743 25.9075 150.012 25.9075H150.817V27H149.782C149.191 27 148.739 26.862 148.425 26.586C148.11 26.31 147.953 25.8615 147.953 25.2405V21.733H147.206V20.6635H147.953V19.088H149.276V20.6635H150.817V21.733H149.276ZM155.361 20.56C155.844 20.56 156.274 20.6635 156.649 20.8705C157.033 21.0775 157.332 21.3842 157.546 21.7905C157.769 22.1968 157.88 22.6875 157.88 23.2625V27H156.58V23.458C156.58 22.8907 156.439 22.4575 156.155 22.1585C155.871 21.8518 155.484 21.6985 154.993 21.6985C154.503 21.6985 154.112 21.8518 153.82 22.1585C153.537 22.4575 153.395 22.8907 153.395 23.458V27H152.084V18.49H153.395V21.3995C153.617 21.1312 153.897 20.9242 154.234 20.7785C154.579 20.6328 154.955 20.56 155.361 20.56ZM165.419 23.6765C165.419 23.9142 165.403 24.1288 165.373 24.3205H160.531C160.57 24.8265 160.757 25.2328 161.095 25.5395C161.432 25.8462 161.846 25.9995 162.337 25.9995C163.042 25.9995 163.54 25.7043 163.832 25.114H165.246C165.055 25.6967 164.706 26.1758 164.2 26.5515C163.701 26.9195 163.08 27.1035 162.337 27.1035C161.731 27.1035 161.187 26.9693 160.704 26.701C160.228 26.425 159.853 26.0417 159.577 25.551C159.308 25.0527 159.174 24.4777 159.174 23.826C159.174 23.1743 159.305 22.6032 159.565 22.1125C159.834 21.6142 160.205 21.2308 160.681 20.9625C161.164 20.6942 161.716 20.56 162.337 20.56C162.935 20.56 163.468 20.6903 163.935 20.951C164.403 21.2117 164.767 21.5797 165.028 22.055C165.288 22.5227 165.419 23.0632 165.419 23.6765ZM164.05 23.2625C164.043 22.7795 163.87 22.3923 163.533 22.101C163.195 21.8097 162.778 21.664 162.279 21.664C161.827 21.664 161.44 21.8097 161.118 22.101C160.796 22.3847 160.604 22.7718 160.543 23.2625H164.05Z" fill="white"/>
<path d="M76.94 50.34H71.38L70.46 53H67.52L72.54 39.02H75.8L80.82 53H77.86L76.94 50.34ZM76.18 48.1L74.16 42.26L72.14 48.1H76.18ZM85.5555 43.52C85.9155 43.0133 86.4088 42.5933 87.0355 42.26C87.6755 41.9133 88.4021 41.74 89.2155 41.74C90.1621 41.74 91.0155 41.9733 91.7755 42.44C92.5488 42.9067 93.1555 43.5733 93.5955 44.44C94.0488 45.2933 94.2755 46.2867 94.2755 47.42C94.2755 48.5533 94.0488 49.56 93.5955 50.44C93.1555 51.3067 92.5488 51.98 91.7755 52.46C91.0155 52.94 90.1621 53.18 89.2155 53.18C88.4021 53.18 87.6821 53.0133 87.0555 52.68C86.4421 52.3467 85.9421 51.9267 85.5555 51.42V58.28H82.7555V41.92H85.5555V43.52ZM91.4155 47.42C91.4155 46.7533 91.2755 46.18 90.9955 45.7C90.7288 45.2067 90.3688 44.8333 89.9155 44.58C89.4755 44.3267 88.9955 44.2 88.4755 44.2C87.9688 44.2 87.4888 44.3333 87.0355 44.6C86.5955 44.8533 86.2355 45.2267 85.9555 45.72C85.6888 46.2133 85.5555 46.7933 85.5555 47.46C85.5555 48.1267 85.6888 48.7067 85.9555 49.2C86.2355 49.6933 86.5955 50.0733 87.0355 50.34C87.4888 50.5933 87.9688 50.72 88.4755 50.72C88.9955 50.72 89.4755 50.5867 89.9155 50.32C90.3688 50.0533 90.7288 49.6733 90.9955 49.18C91.2755 48.6867 91.4155 48.1 91.4155 47.42ZM99.1692 43.52C99.5292 43.0133 100.023 42.5933 100.649 42.26C101.289 41.9133 102.016 41.74 102.829 41.74C103.776 41.74 104.629 41.9733 105.389 42.44C106.163 42.9067 106.769 43.5733 107.209 44.44C107.663 45.2933 107.889 46.2867 107.889 47.42C107.889 48.5533 107.663 49.56 107.209 50.44C106.769 51.3067 106.163 51.98 105.389 52.46C104.629 52.94 103.776 53.18 102.829 53.18C102.016 53.18 101.296 53.0133 100.669 52.68C100.056 52.3467 99.5559 51.9267 99.1692 51.42V58.28H96.3692V41.92H99.1692V43.52ZM105.029 47.42C105.029 46.7533 104.889 46.18 104.609 45.7C104.343 45.2067 103.983 44.8333 103.529 44.58C103.089 44.3267 102.609 44.2 102.089 44.2C101.583 44.2 101.103 44.3333 100.649 44.6C100.209 44.8533 99.8492 45.2267 99.5692 45.72C99.3026 46.2133 99.1692 46.7933 99.1692 47.46C99.1692 48.1267 99.3026 48.7067 99.5692 49.2C99.8492 49.6933 100.209 50.0733 100.649 50.34C101.103 50.5933 101.583 50.72 102.089 50.72C102.609 50.72 103.089 50.5867 103.529 50.32C103.983 50.0533 104.343 49.6733 104.609 49.18C104.889 48.6867 105.029 48.1 105.029 47.42ZM119.628 53.14C118.654 53.14 117.774 52.9733 116.988 52.64C116.214 52.3067 115.601 51.8267 115.148 51.2C114.694 50.5733 114.461 49.8333 114.448 48.98H117.448C117.488 49.5533 117.688 50.0067 118.048 50.34C118.421 50.6733 118.928 50.84 119.568 50.84C120.221 50.84 120.734 50.6867 121.108 50.38C121.481 50.06 121.668 49.6467 121.668 49.14C121.668 48.7267 121.541 48.3867 121.288 48.12C121.034 47.8533 120.714 47.6467 120.328 47.5C119.954 47.34 119.434 47.1667 118.768 46.98C117.861 46.7133 117.121 46.4533 116.548 46.2C115.988 45.9333 115.501 45.54 115.088 45.02C114.688 44.4867 114.488 43.78 114.488 42.9C114.488 42.0733 114.694 41.3533 115.108 40.74C115.521 40.1267 116.101 39.66 116.848 39.34C117.594 39.0067 118.448 38.84 119.408 38.84C120.848 38.84 122.014 39.1933 122.908 39.9C123.814 40.5933 124.314 41.5667 124.408 42.82H121.328C121.301 42.34 121.094 41.9467 120.708 41.64C120.334 41.32 119.834 41.16 119.208 41.16C118.661 41.16 118.221 41.3 117.888 41.58C117.568 41.86 117.408 42.2667 117.408 42.8C117.408 43.1733 117.528 43.4867 117.768 43.74C118.021 43.98 118.328 44.18 118.688 44.34C119.061 44.4867 119.581 44.66 120.248 44.86C121.154 45.1267 121.894 45.3933 122.468 45.66C123.041 45.9267 123.534 46.3267 123.948 46.86C124.361 47.3933 124.568 48.0933 124.568 48.96C124.568 49.7067 124.374 50.4 123.988 51.04C123.601 51.68 123.034 52.1933 122.288 52.58C121.541 52.9533 120.654 53.14 119.628 53.14ZM130.314 44.22V49.58C130.314 49.9533 130.401 50.2267 130.574 50.4C130.761 50.56 131.068 50.64 131.494 50.64H132.794V53H131.034C128.674 53 127.494 51.8533 127.494 49.56V44.22H126.174V41.92H127.494V39.18H130.314V41.92H132.794V44.22H130.314ZM139.787 53.18C138.721 53.18 137.761 52.9467 136.907 52.48C136.054 52 135.381 51.3267 134.887 50.46C134.407 49.5933 134.167 48.5933 134.167 47.46C134.167 46.3267 134.414 45.3267 134.907 44.46C135.414 43.5933 136.101 42.9267 136.967 42.46C137.834 41.98 138.801 41.74 139.867 41.74C140.934 41.74 141.901 41.98 142.767 42.46C143.634 42.9267 144.314 43.5933 144.807 44.46C145.314 45.3267 145.567 46.3267 145.567 47.46C145.567 48.5933 145.307 49.5933 144.787 50.46C144.281 51.3267 143.587 52 142.707 52.48C141.841 52.9467 140.867 53.18 139.787 53.18ZM139.787 50.74C140.294 50.74 140.767 50.62 141.207 50.38C141.661 50.1267 142.021 49.7533 142.287 49.26C142.554 48.7667 142.687 48.1667 142.687 47.46C142.687 46.4067 142.407 45.6 141.847 45.04C141.301 44.4667 140.627 44.18 139.827 44.18C139.027 44.18 138.354 44.4667 137.807 45.04C137.274 45.6 137.007 46.4067 137.007 47.46C137.007 48.5133 137.267 49.3267 137.787 49.9C138.321 50.46 138.987 50.74 139.787 50.74ZM150.48 43.64C150.84 43.0533 151.307 42.5933 151.88 42.26C152.467 41.9267 153.134 41.76 153.88 41.76V44.7H153.14C152.26 44.7 151.594 44.9067 151.14 45.32C150.7 45.7333 150.48 46.4533 150.48 47.48V53H147.68V41.92H150.48V43.64ZM166.125 47.22C166.125 47.62 166.099 47.98 166.045 48.3H157.945C158.012 49.1 158.292 49.7267 158.785 50.18C159.279 50.6333 159.885 50.86 160.605 50.86C161.645 50.86 162.385 50.4133 162.825 49.52H165.845C165.525 50.5867 164.912 51.4667 164.005 52.16C163.099 52.84 161.985 53.18 160.665 53.18C159.599 53.18 158.639 52.9467 157.785 52.48C156.945 52 156.285 51.3267 155.805 50.46C155.339 49.5933 155.105 48.5933 155.105 47.46C155.105 46.3133 155.339 45.3067 155.805 44.44C156.272 43.5733 156.925 42.9067 157.765 42.44C158.605 41.9733 159.572 41.74 160.665 41.74C161.719 41.74 162.659 41.9667 163.485 42.42C164.325 42.8733 164.972 43.52 165.425 44.36C165.892 45.1867 166.125 46.14 166.125 47.22ZM163.225 46.42C163.212 45.7 162.952 45.1267 162.445 44.7C161.939 44.26 161.319 44.04 160.585 44.04C159.892 44.04 159.305 44.2533 158.825 44.68C158.359 45.0933 158.072 45.6733 157.965 46.42H163.225Z" fill="white"/>
<path fill-rule="evenodd" clip-rule="evenodd" d="M45.875 16.75C46.25 18.8125 45.3125 20.875 44.1875 22.375C43.0625 23.875 41 25.1875 38.9375 25C38.5625 22.9375 39.5 21.0625 40.625 19.5625C41.9375 18.0625 44 16.9375 45.875 16.75ZM51.875 49.375C52.8125 47.875 53.375 46.9375 54.125 45.25C48.3125 43 47.375 34.75 53.1875 31.75C51.5 29.5 49.0625 28.375 46.625 28.375C44.9375 28.375 43.8125 28.75 42.6875 29.125C41.75 29.5 41 29.6875 40.0625 29.6875C38.9375 29.6875 38.1875 29.3125 37.0625 28.9375C35.9375 28.5625 34.8125 28.1875 33.5 28.1875C30.875 28.1875 28.0625 29.6875 26.375 32.5C23.9375 36.25 24.3125 43.5625 28.25 49.5625C29.9375 51.8125 31.8125 54.25 34.25 54.25C35.375 54.25 35.9375 53.875 36.6875 53.6875C37.625 53.3125 38.5625 52.9375 40.0625 52.9375C41.75 52.9375 42.5 53.3125 43.4375 53.6875C44.1875 54.0625 44.75 54.25 45.875 54.25C48.5 54.25 50.375 51.4375 51.875 49.375Z" stroke="white" stroke-width="2.5" stroke-miterlimit="10" stroke-linecap="round" stroke-linejoin="round"/>
<rect x="17.5" y="13.5" width="44" height="44" stroke="black"/>
<rect x="1.5" y="1.5" width="182" height="67" rx="8.5" stroke="black" stroke-width="3"/>
</svg>
