<svg width="28" height="24" viewBox="0 0 28 24" fill="none" xmlns="http://www.w3.org/2000/svg">
<path d="M18.43 18.8201C18.24 18.8201 18.05 18.7501 17.9 18.6001C17.61 18.3101 17.61 17.8301 17.9 17.5401L23.44 12.0001L17.9 6.46012C17.61 6.17012 17.61 5.69012 17.9 5.40012C18.19 5.11012 18.67 5.11012 18.96 5.40012L25.03 11.4701C25.32 11.7601 25.32 12.2401 25.03 12.5301L18.96 18.6001C18.81 18.7501 18.62 18.8201 18.43 18.8201Z" fill="#1740FF"/>
<path d="M23.1254 12.75H1.70458C1.18274 12.75 0.75 12.41 0.75 12C0.75 11.59 1.18274 11.25 1.70458 11.25H23.1254C23.6473 11.25 24.08 11.59 24.08 12C24.08 12.41 23.6473 12.75 23.1254 12.75Z" fill="#1740FF"/>
</svg>
