<svg width="33" height="33" viewBox="0 0 33 33" fill="none" xmlns="http://www.w3.org/2000/svg">
<path d="M2.75 17.3389H26.125" stroke="#1740FF" stroke-width="1.5" stroke-miterlimit="10" stroke-linecap="round" stroke-linejoin="round"/>
<path d="M26.125 14.1351V23.9663C26.0838 27.8851 25.0112 28.8751 20.9275 28.8751H7.94754C3.79504 28.8751 2.75 27.8438 2.75 23.7463V14.1351C2.75 10.4226 3.61625 9.22635 6.875 9.03385C7.205 9.0201 7.56254 9.00635 7.94754 9.00635H20.9275C25.08 9.00635 26.125 10.0376 26.125 14.1351Z" stroke="#1740FF" stroke-width="1.5" stroke-linecap="round" stroke-linejoin="round"/>
<path d="M30.25 9.25375V18.865C30.25 22.5775 29.3837 23.7738 26.125 23.9663V14.135C26.125 10.0375 25.08 9.00625 20.9275 9.00625H7.94754C7.56254 9.00625 7.205 9.02 6.875 9.03375C6.91625 5.115 7.98879 4.125 12.0725 4.125H25.0525C29.205 4.125 30.25 5.15625 30.25 9.25375Z" stroke="#1740FF" stroke-width="1.5" stroke-linecap="round" stroke-linejoin="round"/>
<path d="M7.21875 24.4888H9.58371" stroke="#1740FF" stroke-width="1.5" stroke-miterlimit="10" stroke-linecap="round" stroke-linejoin="round"/>
<path d="M12.5261 24.4888H17.2561" stroke="#1740FF" stroke-width="1.5" stroke-miterlimit="10" stroke-linecap="round" stroke-linejoin="round"/>
</svg>
