<svg width="33" height="33" viewBox="0 0 33 33" fill="none" xmlns="http://www.w3.org/2000/svg">
<path d="M13.9009 24.9561H8.6897C8.12595 24.9561 7.65845 24.4886 7.65845 23.9249V16.8849C7.65845 15.4549 8.82718 14.2861 10.2572 14.2861H13.9009C14.4647 14.2861 14.9322 14.7536 14.9322 15.3174V23.9111C14.9322 24.4886 14.4647 24.9561 13.9009 24.9561ZM9.72095 22.8936H12.8697V16.3624H10.2572C9.96843 16.3624 9.72095 16.5961 9.72095 16.8986V22.8936Z" fill="#1740FF"/>
<path d="M19.099 24.9565H13.8877C13.3239 24.9565 12.8564 24.489 12.8564 23.9253V10.6427C12.8564 9.21272 14.0252 8.04395 15.4552 8.04395H17.5452C18.9752 8.04395 20.1439 9.21272 20.1439 10.6427V23.9253C20.1302 24.489 19.6765 24.9565 19.099 24.9565ZM14.9327 22.894H18.0814V10.6427C18.0814 10.354 17.8477 10.1064 17.5452 10.1064H15.4552C15.1664 10.1064 14.9189 10.3402 14.9189 10.6427V22.894H14.9327Z" fill="#1740FF"/>
<path d="M24.3101 24.9565H19.0989C18.5351 24.9565 18.0676 24.489 18.0676 23.9253V17.6689C18.0676 17.1052 18.5351 16.6377 19.0989 16.6377H22.7426C24.1726 16.6377 25.3413 17.8065 25.3413 19.2365V23.9253C25.3413 24.489 24.8876 24.9565 24.3101 24.9565ZM20.1301 22.894H23.2788V19.2365C23.2788 18.9477 23.0451 18.7002 22.7426 18.7002H20.1301V22.894Z" fill="#1740FF"/>
<path d="M20.625 31.2812H12.375C4.90875 31.2812 1.71875 28.0912 1.71875 20.625V12.375C1.71875 4.90875 4.90875 1.71875 12.375 1.71875H20.625C28.0912 1.71875 31.2812 4.90875 31.2812 12.375V20.625C31.2812 28.0912 28.0912 31.2812 20.625 31.2812ZM12.375 3.78125C6.03625 3.78125 3.78125 6.03625 3.78125 12.375V20.625C3.78125 26.9638 6.03625 29.2188 12.375 29.2188H20.625C26.9638 29.2188 29.2188 26.9638 29.2188 20.625V12.375C29.2188 6.03625 26.9638 3.78125 20.625 3.78125H12.375Z" fill="#1740FF"/>
</svg>
