<svg width="73" height="45" viewBox="0 0 73 45" fill="none" xmlns="http://www.w3.org/2000/svg">
<path d="M13.0002 30.375L21.6029 37.2571C22.0308 37.5995 22.6545 37.5336 23.0016 37.1095L39.2502 17.25" stroke="#1740FF" stroke-width="2" stroke-linecap="round"/>
<path fill-rule="evenodd" clip-rule="evenodd" d="M15.9725 31.2379L26.899 17.8833C27.2487 17.4558 27.1857 16.8258 26.7583 16.4761C26.3309 16.1263 25.7008 16.1893 25.3511 16.6168L14.436 29.9575L15.9725 31.2379ZM14.706 32.7859L13.1695 31.5055L9.08315 36.4998L2.35006 31.45C1.90823 31.1187 1.28143 31.2082 0.950058 31.65C0.618689 32.0919 0.708231 32.7187 1.15006 33.05L7.88315 38.0998C8.74053 38.7429 9.9524 38.5958 10.6311 37.7663L14.706 32.7859Z" fill="#1740FF"/>
</svg>
