<svg width="265" height="331" viewBox="0 0 265 331" fill="none" xmlns="http://www.w3.org/2000/svg">
<path d="M264.018 61.2244C242.558 34.7753 213.46 15.5914 180.694 6.29036C147.929 -3.01069 113.091 -1.97588 80.9355 9.25359C48.7798 20.483 20.8718 41.3602 1.01942 69.0365C-18.8329 96.7129 -29.6627 129.84 -29.9922 163.899C-30.3217 197.957 -20.135 231.288 -0.821849 259.344C18.4913 287.399 45.9901 308.812 77.9226 320.662C109.855 332.511 144.666 334.22 177.605 325.554C210.545 316.889 240.008 298.272 261.976 272.243L231.996 246.941C215.236 266.8 192.756 281.004 167.625 287.615C142.493 294.227 115.934 292.923 91.5707 283.882C67.2075 274.841 46.227 258.504 31.4918 237.099C16.7567 215.694 8.98458 190.264 9.236 164.278C9.48741 138.293 17.7501 113.018 32.8966 91.9022C48.0432 70.7863 69.3359 54.8578 93.8695 46.2902C118.403 37.7225 144.983 36.933 169.981 44.0294C194.98 51.1257 217.181 65.7622 233.554 85.9419L264.018 61.2244Z" fill="url(#paint0_linear_1687_3865)" fill-opacity="0.1"/>
<defs>
<linearGradient id="paint0_linear_1687_3865" x1="31.2244" y1="36.9822" x2="239.776" y2="294.018" gradientUnits="userSpaceOnUse">
<stop stop-color="#1740FF"/>
<stop offset="1" stop-color="#4361EE" stop-opacity="0.1"/>
</linearGradient>
</defs>
</svg>
