<svg width="305" height="331" viewBox="0 0 305 331" fill="none" xmlns="http://www.w3.org/2000/svg">
<path d="M1.44685e-05 165.5C1.1491e-05 199.558 10.5074 232.787 30.0888 260.653C49.6701 288.519 77.3717 309.665 109.414 321.207C141.457 332.749 176.28 334.124 209.133 325.145C241.986 316.165 271.269 297.269 292.987 271.034C314.704 244.798 327.799 212.502 330.485 178.55C333.17 144.598 325.316 110.644 307.993 81.3208C290.669 51.9975 264.721 28.7326 233.689 14.7002C202.656 0.667805 168.049 -3.44881 134.591 2.912L141.916 41.4453C167.445 36.5921 193.85 39.733 217.528 50.4397C241.206 61.1465 261.004 78.8976 274.222 101.271C287.439 123.645 293.432 149.552 291.383 175.457C289.334 201.362 279.343 226.005 262.772 246.022C246.202 266.04 223.859 280.458 198.792 287.309C173.725 294.16 147.155 293.111 122.707 284.304C98.2581 275.498 77.1218 259.363 62.1812 238.102C47.2407 216.84 39.2235 191.486 39.2235 165.5L1.44685e-05 165.5Z" fill="url(#paint0_linear_1691_3884)" fill-opacity="0.1"/>
<defs>
<linearGradient id="paint0_linear_1691_3884" x1="165.5" y1="331" x2="165.5" y2="-1.44685e-05" gradientUnits="userSpaceOnUse">
<stop/>
<stop offset="1" stop-opacity="0.2"/>
</linearGradient>
</defs>
</svg>
