<svg width="206" height="70" viewBox="0 0 206 70" fill="none" xmlns="http://www.w3.org/2000/svg">
<rect x="1.5" y="1.5" width="203" height="67" rx="8.5" fill="black"/>
<path d="M48.6687 42.9249C48.3124 42.9249 47.9375 42.7749 47.675 42.5124L41.6937 36.5312C41.15 35.9874 41.15 35.0874 41.6937 34.5437L47.7312 28.5062C48.1624 28.0749 48.8187 27.9812 49.3625 28.2437L57.7812 32.4624C58.9437 33.0249 59.6749 34.1874 59.6749 35.4999C59.6749 36.8124 58.9437 37.9749 57.7812 38.5374L49.325 42.7749C49.1 42.8687 48.8749 42.9249 48.6687 42.9249ZM44.675 35.5374L48.9312 39.7937L56.4874 36.0062C56.4874 36.0062 56.4874 36.0062 56.5062 36.0062C56.7874 35.8749 56.8249 35.6312 56.8249 35.4999C56.8249 35.3687 56.7874 35.1249 56.5062 34.9937L48.9875 31.2249L44.675 35.5374Z" fill="white"/>
<path d="M22.7563 55.6564C22.1375 55.6564 21.5 55.4877 20.9562 55.1314C19.9437 54.5127 19.3438 53.4252 19.3438 52.2252V18.7377C19.3438 17.5564 19.9437 16.4689 20.9562 15.8314C21.9688 15.2127 23.2063 15.1377 24.275 15.6814L49.3438 28.2252C49.7563 28.4314 50.0375 28.8064 50.0938 29.2564C50.15 29.7064 50.0188 30.1564 49.7 30.4752L25.7 54.4752C25.5875 54.5877 25.475 54.6627 25.325 54.7377L24.2375 55.2814C23.7875 55.5439 23.2625 55.6564 22.7563 55.6564ZM22.7563 18.1564C22.625 18.1564 22.5125 18.2126 22.4375 18.2501C22.325 18.3064 22.1563 18.4752 22.1563 18.7564V52.2439C22.1563 52.5439 22.325 52.6939 22.4375 52.7502C22.55 52.8252 22.7563 52.9002 23.0375 52.7689L23.9 52.3377L46.3438 29.8939L23.0188 18.2314C22.925 18.1752 22.8313 18.1564 22.7563 18.1564Z" fill="white"/>
<path d="M24.725 54.9064C24.2937 54.9064 23.8625 54.7001 23.5812 54.3251C23.1687 53.7626 23.2437 52.9939 23.7312 52.5064L41.6937 34.5438C41.9562 34.2813 42.3125 34.1313 42.6875 34.1313C43.0625 34.1313 43.4187 34.2813 43.6812 34.5438L49.6625 40.5251C49.9812 40.8439 50.1312 41.2938 50.0562 41.7438C49.9812 42.1938 49.7 42.5689 49.3062 42.7751L25.3812 54.7563C25.1562 54.8501 24.95 54.9064 24.725 54.9064ZM42.6875 37.5251L31.8687 48.3439L46.2875 41.1251L42.6875 37.5251Z" fill="white"/>
<path d="M42.6874 36.9437C42.3312 36.9437 41.9749 36.8125 41.6937 36.5312L23.6749 18.5125C23.1312 17.9687 23.1312 17.0687 23.6749 16.525C24.2187 15.9813 25.1187 15.9813 25.6624 16.525L43.6812 34.5437C44.2249 35.0875 44.2249 35.9875 43.6812 36.5312C43.4187 36.8125 43.0437 36.9437 42.6874 36.9437Z" fill="white"/>
<path d="M48.6875 42.9623C48.35 42.9623 47.9938 42.8311 47.7313 42.5498L47.675 42.4936C47.1313 41.9498 47.1313 41.0499 47.6938 40.5061C48.2563 39.9624 49.1375 39.9623 49.6813 40.5248C50.225 41.0686 50.2438 42.0061 49.7 42.5498C49.4 42.8311 49.0438 42.9623 48.6875 42.9623Z" fill="white"/>
<path d="M75.67 21.575C75.4 21.055 75.025 20.665 74.545 20.405C74.065 20.135 73.51 20 72.88 20C72.19 20 71.575 20.155 71.035 20.465C70.495 20.775 70.07 21.215 69.76 21.785C69.46 22.355 69.31 23.015 69.31 23.765C69.31 24.515 69.46 25.18 69.76 25.76C70.07 26.33 70.495 26.77 71.035 27.08C71.575 27.39 72.19 27.545 72.88 27.545C73.81 27.545 74.565 27.285 75.145 26.765C75.725 26.245 76.08 25.54 76.21 24.65H72.295V23.285H78.04V24.62C77.93 25.43 77.64 26.175 77.17 26.855C76.71 27.535 76.105 28.08 75.355 28.49C74.615 28.89 73.79 29.09 72.88 29.09C71.9 29.09 71.005 28.865 70.195 28.415C69.385 27.955 68.74 27.32 68.26 26.51C67.79 25.7 67.555 24.785 67.555 23.765C67.555 22.745 67.79 21.83 68.26 21.02C68.74 20.21 69.385 19.58 70.195 19.13C71.015 18.67 71.91 18.44 72.88 18.44C73.99 18.44 74.975 18.715 75.835 19.265C76.705 19.805 77.335 20.575 77.725 21.575H75.67ZM81.4956 19.955V23.015H85.0956V24.41H81.4956V27.605H85.5456V29H79.7856V18.56H85.5456V19.955H81.4956ZM94.4459 18.575V19.97H91.6709V29H89.9609V19.97H87.1709V18.575H94.4459ZM101.902 18.575V29H100.192V18.575H101.902ZM110.941 18.575V19.97H108.166V29H106.456V19.97H103.666V18.575H110.941ZM121.443 29.105C120.473 29.105 119.578 28.88 118.758 28.43C117.948 27.97 117.303 27.335 116.823 26.525C116.353 25.705 116.118 24.785 116.118 23.765C116.118 22.745 116.353 21.83 116.823 21.02C117.303 20.21 117.948 19.58 118.758 19.13C119.578 18.67 120.473 18.44 121.443 18.44C122.423 18.44 123.318 18.67 124.128 19.13C124.948 19.58 125.593 20.21 126.063 21.02C126.533 21.83 126.768 22.745 126.768 23.765C126.768 24.785 126.533 25.705 126.063 26.525C125.593 27.335 124.948 27.97 124.128 28.43C123.318 28.88 122.423 29.105 121.443 29.105ZM121.443 27.62C122.133 27.62 122.748 27.465 123.288 27.155C123.828 26.835 124.248 26.385 124.548 25.805C124.858 25.215 125.013 24.535 125.013 23.765C125.013 22.995 124.858 22.32 124.548 21.74C124.248 21.16 123.828 20.715 123.288 20.405C122.748 20.095 122.133 19.94 121.443 19.94C120.753 19.94 120.138 20.095 119.598 20.405C119.058 20.715 118.633 21.16 118.323 21.74C118.023 22.32 117.873 22.995 117.873 23.765C117.873 24.535 118.023 25.215 118.323 25.805C118.633 26.385 119.058 26.835 119.598 27.155C120.138 27.465 120.753 27.62 121.443 27.62ZM137.075 29H135.365L130.22 21.215V29H128.51V18.56H130.22L135.365 26.33V18.56H137.075V29Z" fill="white"/>
<path d="M78.1 43.24C77.78 42.6533 77.34 42.2067 76.78 41.9C76.22 41.5933 75.5667 41.44 74.82 41.44C73.9933 41.44 73.26 41.6267 72.62 42C71.98 42.3733 71.48 42.9067 71.12 43.6C70.76 44.2933 70.58 45.0933 70.58 46C70.58 46.9333 70.76 47.7467 71.12 48.44C71.4933 49.1333 72.0067 49.6667 72.66 50.04C73.3133 50.4133 74.0733 50.6 74.94 50.6C76.0067 50.6 76.88 50.32 77.56 49.76C78.24 49.1867 78.6867 48.3933 78.9 47.38H74.1V45.24H81.66V47.68C81.4733 48.6533 81.0733 49.5533 80.46 50.38C79.8467 51.2067 79.0533 51.8733 78.08 52.38C77.12 52.8733 76.04 53.12 74.84 53.12C73.4933 53.12 72.2733 52.82 71.18 52.22C70.1 51.6067 69.2467 50.76 68.62 49.68C68.0067 48.6 67.7 47.3733 67.7 46C67.7 44.6267 68.0067 43.4 68.62 42.32C69.2467 41.2267 70.1 40.38 71.18 39.78C72.2733 39.1667 73.4867 38.86 74.82 38.86C76.3933 38.86 77.76 39.2467 78.92 40.02C80.08 40.78 80.88 41.8533 81.32 43.24H78.1ZM88.7106 53.18C87.644 53.18 86.684 52.9467 85.8306 52.48C84.9773 52 84.304 51.3267 83.8106 50.46C83.3306 49.5933 83.0906 48.5933 83.0906 47.46C83.0906 46.3267 83.3373 45.3267 83.8306 44.46C84.3373 43.5933 85.024 42.9267 85.8906 42.46C86.7573 41.98 87.724 41.74 88.7906 41.74C89.8573 41.74 90.824 41.98 91.6906 42.46C92.5573 42.9267 93.2373 43.5933 93.7306 44.46C94.2373 45.3267 94.4906 46.3267 94.4906 47.46C94.4906 48.5933 94.2306 49.5933 93.7106 50.46C93.204 51.3267 92.5106 52 91.6306 52.48C90.764 52.9467 89.7906 53.18 88.7106 53.18ZM88.7106 50.74C89.2173 50.74 89.6906 50.62 90.1306 50.38C90.584 50.1267 90.944 49.7533 91.2106 49.26C91.4773 48.7667 91.6106 48.1667 91.6106 47.46C91.6106 46.4067 91.3306 45.6 90.7706 45.04C90.224 44.4667 89.5506 44.18 88.7506 44.18C87.9506 44.18 87.2773 44.4667 86.7306 45.04C86.1973 45.6 85.9306 46.4067 85.9306 47.46C85.9306 48.5133 86.1906 49.3267 86.7106 49.9C87.244 50.46 87.9106 50.74 88.7106 50.74ZM101.524 53.18C100.457 53.18 99.4969 52.9467 98.6436 52.48C97.7903 52 97.1169 51.3267 96.6236 50.46C96.1436 49.5933 95.9036 48.5933 95.9036 47.46C95.9036 46.3267 96.1503 45.3267 96.6436 44.46C97.1503 43.5933 97.8369 42.9267 98.7036 42.46C99.5703 41.98 100.537 41.74 101.604 41.74C102.67 41.74 103.637 41.98 104.504 42.46C105.37 42.9267 106.05 43.5933 106.544 44.46C107.05 45.3267 107.304 46.3267 107.304 47.46C107.304 48.5933 107.044 49.5933 106.524 50.46C106.017 51.3267 105.324 52 104.444 52.48C103.577 52.9467 102.604 53.18 101.524 53.18ZM101.524 50.74C102.03 50.74 102.504 50.62 102.944 50.38C103.397 50.1267 103.757 49.7533 104.024 49.26C104.29 48.7667 104.424 48.1667 104.424 47.46C104.424 46.4067 104.144 45.6 103.584 45.04C103.037 44.4667 102.364 44.18 101.564 44.18C100.764 44.18 100.09 44.4667 99.5436 45.04C99.0103 45.6 98.7436 46.4067 98.7436 47.46C98.7436 48.5133 99.0036 49.3267 99.5236 49.9C100.057 50.46 100.724 50.74 101.524 50.74ZM113.757 41.74C114.583 41.74 115.31 41.9067 115.937 42.24C116.563 42.56 117.057 42.98 117.417 43.5V41.92H120.237V53.08C120.237 54.1067 120.03 55.02 119.617 55.82C119.203 56.6333 118.583 57.2733 117.757 57.74C116.93 58.22 115.93 58.46 114.757 58.46C113.183 58.46 111.89 58.0933 110.877 57.36C109.877 56.6267 109.31 55.6267 109.177 54.36H111.957C112.103 54.8667 112.417 55.2667 112.897 55.56C113.39 55.8667 113.983 56.02 114.677 56.02C115.49 56.02 116.15 55.7733 116.657 55.28C117.163 54.8 117.417 54.0667 117.417 53.08V51.36C117.057 51.88 116.557 52.3133 115.917 52.66C115.29 53.0067 114.57 53.18 113.757 53.18C112.823 53.18 111.97 52.94 111.197 52.46C110.423 51.98 109.81 51.3067 109.357 50.44C108.917 49.56 108.697 48.5533 108.697 47.42C108.697 46.3 108.917 45.3067 109.357 44.44C109.81 43.5733 110.417 42.9067 111.177 42.44C111.95 41.9733 112.81 41.74 113.757 41.74ZM117.417 47.46C117.417 46.78 117.283 46.2 117.017 45.72C116.75 45.2267 116.39 44.8533 115.937 44.6C115.483 44.3333 114.997 44.2 114.477 44.2C113.957 44.2 113.477 44.3267 113.037 44.58C112.597 44.8333 112.237 45.2067 111.957 45.7C111.69 46.18 111.557 46.7533 111.557 47.42C111.557 48.0867 111.69 48.6733 111.957 49.18C112.237 49.6733 112.597 50.0533 113.037 50.32C113.49 50.5867 113.97 50.72 114.477 50.72C114.997 50.72 115.483 50.5933 115.937 50.34C116.39 50.0733 116.75 49.7 117.017 49.22C117.283 48.7267 117.417 48.14 117.417 47.46ZM125.83 38.2V53H123.03V38.2H125.83ZM138.956 47.22C138.956 47.62 138.929 47.98 138.876 48.3H130.776C130.842 49.1 131.122 49.7267 131.616 50.18C132.109 50.6333 132.716 50.86 133.436 50.86C134.476 50.86 135.216 50.4133 135.656 49.52H138.676C138.356 50.5867 137.742 51.4667 136.836 52.16C135.929 52.84 134.816 53.18 133.496 53.18C132.429 53.18 131.469 52.9467 130.616 52.48C129.776 52 129.116 51.3267 128.636 50.46C128.169 49.5933 127.936 48.5933 127.936 47.46C127.936 46.3133 128.169 45.3067 128.636 44.44C129.102 43.5733 129.756 42.9067 130.596 42.44C131.436 41.9733 132.402 41.74 133.496 41.74C134.549 41.74 135.489 41.9667 136.316 42.42C137.156 42.8733 137.802 43.52 138.256 44.36C138.722 45.1867 138.956 46.14 138.956 47.22ZM136.056 46.42C136.042 45.7 135.782 45.1267 135.276 44.7C134.769 44.26 134.149 44.04 133.416 44.04C132.722 44.04 132.136 44.2533 131.656 44.68C131.189 45.0933 130.902 45.6733 130.796 46.42H136.056ZM156.063 43.36C156.063 44.1067 155.883 44.8067 155.523 45.46C155.177 46.1133 154.623 46.64 153.863 47.04C153.117 47.44 152.17 47.64 151.023 47.64H148.683V53H145.883V39.04H151.023C152.103 39.04 153.023 39.2267 153.783 39.6C154.543 39.9733 155.11 40.4867 155.483 41.14C155.87 41.7933 156.063 42.5333 156.063 43.36ZM150.903 45.38C151.677 45.38 152.25 45.2067 152.623 44.86C152.997 44.5 153.183 44 153.183 43.36C153.183 42 152.423 41.32 150.903 41.32H148.683V45.38H150.903ZM160.91 38.2V53H158.11V38.2H160.91ZM163.016 47.42C163.016 46.3 163.236 45.3067 163.676 44.44C164.129 43.5733 164.736 42.9067 165.496 42.44C166.269 41.9733 167.129 41.74 168.076 41.74C168.902 41.74 169.622 41.9067 170.236 42.24C170.862 42.5733 171.362 42.9933 171.736 43.5V41.92H174.556V53H171.736V51.38C171.376 51.9 170.876 52.3333 170.236 52.68C169.609 53.0133 168.882 53.18 168.056 53.18C167.122 53.18 166.269 52.94 165.496 52.46C164.736 51.98 164.129 51.3067 163.676 50.44C163.236 49.56 163.016 48.5533 163.016 47.42ZM171.736 47.46C171.736 46.78 171.602 46.2 171.336 45.72C171.069 45.2267 170.709 44.8533 170.256 44.6C169.802 44.3333 169.316 44.2 168.796 44.2C168.276 44.2 167.796 44.3267 167.356 44.58C166.916 44.8333 166.556 45.2067 166.276 45.7C166.009 46.18 165.876 46.7533 165.876 47.42C165.876 48.0867 166.009 48.6733 166.276 49.18C166.556 49.6733 166.916 50.0533 167.356 50.32C167.809 50.5867 168.289 50.72 168.796 50.72C169.316 50.72 169.802 50.5933 170.256 50.34C170.709 50.0733 171.069 49.7 171.336 49.22C171.602 48.7267 171.736 48.14 171.736 47.46ZM187.95 41.92L181.09 58.24H178.11L180.51 52.72L176.07 41.92H179.21L182.07 49.66L184.97 41.92H187.95Z" fill="white"/>
<rect x="1.5" y="1.5" width="203" height="67" rx="8.5" stroke="black" stroke-width="3"/>
</svg>
