<svg width="829" height="946" viewBox="0 0 829 946" fill="none" xmlns="http://www.w3.org/2000/svg">
<path d="M829 479C829 388.901 803.589 300.629 755.684 224.321C707.779 148.012 639.324 86.7621 558.179 47.6041C477.034 8.44599 386.491 -7.03214 296.946 2.94717C207.402 12.9265 122.487 47.9586 51.9542 104.02C-18.5787 160.082 -71.8699 234.9 -101.799 319.883C-131.729 404.866 -137.083 496.566 -117.248 584.455C-97.4118 672.343 -53.1901 752.855 10.3389 816.744C73.868 880.634 154.128 925.311 241.903 945.643L278.701 786.791C220.806 773.38 167.867 743.912 125.965 701.771C84.0617 659.631 54.8938 606.526 41.8103 548.556C28.7269 490.587 32.2586 430.102 51.9997 374.049C71.7408 317.995 106.891 268.646 153.413 231.669C199.936 194.691 255.944 171.585 315.007 165.003C374.069 158.42 433.79 168.629 487.312 194.458C540.834 220.286 585.986 260.685 617.583 311.017C649.18 361.349 665.941 419.572 665.941 479H829Z" fill="url(#paint0_linear_1373_3341)" fill-opacity="0.1"/>
<defs>
<linearGradient id="paint0_linear_1373_3341" x1="350" y1="0" x2="350" y2="958" gradientUnits="userSpaceOnUse">
<stop stop-color="#1740FF"/>
<stop offset="1" stop-color="#4361EE" stop-opacity="0.1"/>
</linearGradient>
</defs>
</svg>
