<svg width="849" height="946" viewBox="0 0 849 946" fill="none" xmlns="http://www.w3.org/2000/svg">
<path d="M4.18755e-05 467C3.39988e-05 557.099 25.4115 645.371 73.3162 721.679C121.221 797.988 189.676 859.238 270.821 898.396C351.966 937.554 442.509 953.032 532.054 943.053C621.598 933.073 706.513 898.041 777.046 841.98C847.579 785.918 900.87 711.1 930.799 626.117C960.729 541.134 966.083 449.434 946.248 361.545C926.412 273.657 882.19 193.145 818.661 129.255C755.132 65.3659 674.872 20.6894 587.097 0.356596L550.299 159.209C608.194 172.62 661.133 202.088 703.036 244.229C744.938 286.369 774.106 339.474 787.19 397.444C800.273 455.413 796.741 515.898 777 571.951C757.259 628.004 722.109 677.353 675.587 714.331C629.064 751.309 573.056 774.415 513.994 780.997C454.931 787.58 395.21 777.37 341.688 751.542C288.166 725.714 243.014 685.315 211.417 634.983C179.82 584.651 163.059 526.428 163.059 467L4.18755e-05 467Z" fill="url(#paint0_linear_1373_3342)" fill-opacity="0.1"/>
<defs>
<linearGradient id="paint0_linear_1373_3342" x1="479" y1="946" x2="479" y2="-12" gradientUnits="userSpaceOnUse">
<stop/>
<stop offset="1" stop-opacity="0.2"/>
</linearGradient>
</defs>
</svg>
