<svg width="33" height="33" viewBox="0 0 33 33" fill="none" xmlns="http://www.w3.org/2000/svg">
<path d="M9.85847 31.2815C6.58597 31.2815 3.90479 28.9027 3.90479 25.974V23.1689C3.90479 22.6052 4.37229 22.1377 4.93604 22.1377C5.49979 22.1377 5.96729 22.6052 5.96729 23.1689C5.96729 24.8877 7.63097 26.1802 9.85847 26.1802C12.086 26.1802 13.7497 24.8877 13.7497 23.1689C13.7497 22.6052 14.2172 22.1377 14.781 22.1377C15.3447 22.1377 15.8122 22.6052 15.8122 23.1689V25.974C15.8122 28.9027 13.1447 31.2815 9.85847 31.2815ZM6.32471 27.3215C6.92971 28.449 8.29097 29.219 9.85847 29.219C11.426 29.219 12.7872 28.4352 13.3922 27.3215C12.416 27.9127 11.206 28.2565 9.85847 28.2565C8.51097 28.2565 7.30096 27.9127 6.32471 27.3215Z" fill="#1740FF"/>
<path d="M9.85847 24.475C7.60347 24.475 5.58227 23.4437 4.57852 21.8075C4.13852 21.0925 3.90479 20.2537 3.90479 19.4012C3.90479 17.9575 4.53727 16.6099 5.69227 15.6062C7.91977 13.6537 11.756 13.6538 13.9972 15.5925C15.1522 16.61 15.7985 17.9575 15.7985 19.4012C15.7985 20.2537 15.5647 21.0925 15.1247 21.8075C14.1347 23.4437 12.1135 24.475 9.85847 24.475ZM9.85847 16.1562C8.78597 16.1562 7.79601 16.5137 7.0535 17.16C6.35225 17.765 5.96729 18.5625 5.96729 19.4012C5.96729 19.8825 6.09098 20.3225 6.33848 20.735C6.97098 21.78 8.31847 22.4262 9.85847 22.4262C11.3985 22.4262 12.746 21.78 13.3647 20.7488C13.6122 20.35 13.736 19.8962 13.736 19.415C13.736 18.5762 13.351 17.7787 12.6498 17.16C11.921 16.5137 10.931 16.1562 9.85847 16.1562Z" fill="#1740FF"/>
<path d="M9.85847 28.2562C6.46222 28.2562 3.90479 26.07 3.90479 23.1825V19.4012C3.90479 16.4725 6.57222 14.0938 9.85847 14.0938C11.4122 14.0938 12.8973 14.63 14.011 15.5925C15.166 16.61 15.8122 17.9575 15.8122 19.4012V23.1825C15.8122 26.07 13.2547 28.2562 9.85847 28.2562ZM9.85847 16.1562C7.71347 16.1562 5.96729 17.6137 5.96729 19.4012V23.1825C5.96729 24.9012 7.63097 26.1937 9.85847 26.1937C12.086 26.1937 13.7497 24.9012 13.7497 23.1825V19.4012C13.7497 18.5625 13.3648 17.765 12.6635 17.1462C11.921 16.5137 10.931 16.1562 9.85847 16.1562Z" fill="#1740FF"/>
<path d="M26.1798 20.3499C24.1036 20.3499 22.3436 18.8099 22.1786 16.8299C22.0686 15.6886 22.4811 14.5749 23.3061 13.7636C23.9936 13.0486 24.9698 12.6499 26.0011 12.6499H28.8749C30.2361 12.6912 31.2811 13.7636 31.2811 15.0836V17.9162C31.2811 19.2362 30.2362 20.3086 28.9162 20.3499H26.1798ZM28.8336 14.7124H26.0149C25.5336 14.7124 25.0937 14.8911 24.7774 15.2211C24.3787 15.6061 24.1861 16.1286 24.2411 16.6511C24.3099 17.5586 25.1898 18.2874 26.1798 18.2874H28.8749C29.0536 18.2874 29.2186 18.1224 29.2186 17.9162V15.0836C29.2186 14.8773 29.0536 14.7262 28.8336 14.7124Z" fill="#1740FF"/>
<path d="M22.0003 29.2188H18.5628C17.9991 29.2188 17.5316 28.7512 17.5316 28.1875C17.5316 27.6238 17.9991 27.1562 18.5628 27.1562H22.0003C25.5478 27.1562 27.8441 24.86 27.8441 21.3125V20.35H26.1803C24.1041 20.35 22.3441 18.81 22.1791 16.83C22.0691 15.6887 22.4816 14.575 23.3066 13.7638C23.9941 13.0488 24.9703 12.65 26.0015 12.65H27.8303V11.6875C27.8303 8.47 25.9466 6.25622 22.8941 5.89872C22.5641 5.84372 22.2753 5.84375 21.9866 5.84375H9.61157C9.28157 5.84375 8.96531 5.87123 8.64906 5.91248C5.62406 6.29748 3.76782 8.4975 3.76782 11.6875V14.4375C3.76782 15.0013 3.30032 15.4688 2.73657 15.4688C2.17282 15.4688 1.70532 15.0013 1.70532 14.4375V11.6875C1.70532 7.4525 4.31787 4.38626 8.37412 3.87751C8.74537 3.82251 9.17157 3.78125 9.61157 3.78125H21.9866C22.3166 3.78125 22.7428 3.795 23.1828 3.86375C27.2391 4.33125 29.8928 7.41125 29.8928 11.6875V13.6813C29.8928 14.245 29.4253 14.7125 28.8616 14.7125H26.0015C25.5203 14.7125 25.0803 14.8913 24.7641 15.2213C24.3653 15.6063 24.1728 16.1287 24.2278 16.6512C24.2966 17.5587 25.1766 18.2875 26.1666 18.2875H28.8753C29.4391 18.2875 29.9066 18.755 29.9066 19.3187V21.3125C29.9066 26.0425 26.7303 29.2188 22.0003 29.2188Z" fill="#1740FF"/>
</svg>
